C:\Users\Nick\Projects\MRSDeviceOpt\results\experiments\subject02\walk2\expdata\ground_reaction.mot
version=1
nRows=55
nColumns=19
inDegrees=no
endheader
time	ground_force_r_vx	ground_force_r_vy	ground_force_r_vz	ground_force_r_px	ground_force_r_py	ground_force_r_pz	ground_force_l_vx	ground_force_l_vy	ground_force_l_vz	ground_force_l_px	ground_force_l_py	ground_force_l_pz	ground_torque_r_x	ground_torque_r_y	ground_torque_r_z	ground_torque_l_x	ground_torque_l_y	ground_torque_l_z
3.400000	-51.013248	627.383057	-27.025158	0.978872	0.000000	-0.416133	-0.930406	4.184532	1.971281	0.000000	0.000000	0.000000	-0.000000	0.577059	-0.000000	0.000000	0.000000	0.000000
3.401042	-50.632381	626.013062	-27.375511	0.977978	0.000000	-0.416019	-1.058478	4.273839	2.329736	0.000000	0.000000	0.000000	-0.000000	0.579269	-0.000000	0.000000	0.000000	0.000000
3.402083	-50.252682	624.658569	-27.730183	0.977084	0.000000	-0.415908	-1.189317	4.362452	2.696889	0.000000	0.000000	0.000000	-0.000000	0.580412	-0.000000	0.000000	0.000000	0.000000
3.403125	-49.872234	623.323486	-28.083549	0.976190	0.000000	-0.415801	-1.319831	4.448767	3.064035	0.000000	0.000000	0.000000	-0.000000	0.580543	-0.000000	0.000000	0.000000	0.000000
3.404167	-49.489124	622.012085	-28.430197	0.975296	0.000000	-0.415697	-1.446965	4.531164	3.422527	0.000000	0.000000	0.000000	-0.000000	0.579724	-0.000000	0.000000	0.000000	0.000000
3.405208	-49.101482	620.728516	-28.765028	0.974401	0.000000	-0.415596	-1.567768	4.608029	3.763997	0.000000	0.000000	0.000000	-0.000000	0.578023	-0.000000	0.000000	0.000000	0.000000
3.406250	-48.707546	619.477234	-29.083353	0.973504	0.000000	-0.415497	-1.679465	4.677790	4.080565	0.000000	0.000000	0.000000	-0.000000	0.575514	-0.000000	0.000000	0.000000	0.000000
3.407292	-48.305733	618.262451	-29.380974	0.972606	0.000000	-0.415402	-1.779522	4.738951	4.365040	0.000000	0.000000	0.000000	-0.000000	0.572275	-0.000000	0.000000	0.000000	0.000000
3.408333	-47.894718	617.088379	-29.654259	0.971704	0.000000	-0.415308	-1.865705	4.790130	4.611101	0.000000	0.000000	0.000000	-0.000000	0.568388	-0.000000	0.000000	0.000000	0.000000
3.409375	-47.473473	615.958984	-29.900190	0.970800	0.000000	-0.415217	-1.936125	4.830104	4.813462	0.000000	0.000000	0.000000	-0.000000	0.563938	-0.000000	0.000000	0.000000	0.000000
3.410417	-47.041340	614.877869	-30.116411	0.969891	0.000000	-0.415129	-1.989286	4.857847	4.968002	0.000000	0.000000	0.000000	-0.000000	0.559014	-0.000000	0.000000	0.000000	0.000000
3.411458	-46.598053	613.848267	-30.301243	0.968978	0.000000	-0.415042	-2.024116	4.872569	5.071876	0.000000	0.000000	0.000000	-0.000000	0.553708	-0.000000	0.000000	0.000000	0.000000
3.412500	-46.143768	612.872742	-30.453688	0.968061	0.000000	-0.414957	-2.039990	4.873753	5.123575	0.000000	0.000000	0.000000	-0.000000	0.548113	-0.000000	0.000000	0.000000	0.000000
3.413542	-45.679043	611.953552	-30.573412	0.967138	0.000000	-0.414874	-2.036746	4.861180	5.122968	0.000000	0.000000	0.000000	-0.000000	0.542322	-0.000000	0.000000	0.000000	0.000000
3.414583	-45.204838	611.091980	-30.660725	0.966209	0.000000	-0.414793	-2.014686	4.834953	5.071291	0.000000	0.000000	0.000000	-0.000000	0.536432	-0.000000	0.000000	0.000000	0.000000
3.415625	-44.722466	610.288940	-30.716520	0.965275	0.000000	-0.414714	-1.974568	4.795506	4.971100	0.000000	0.000000	0.000000	-0.000000	0.530536	-0.000000	0.000000	0.000000	0.000000
3.416667	-44.233532	609.544373	-30.742231	0.964334	0.000000	-0.414636	-1.917588	4.743605	4.826194	0.000000	0.000000	0.000000	-0.000000	0.524729	-0.000000	0.000000	0.000000	0.000000
3.417708	-43.739883	608.857788	-30.739759	0.963387	0.000000	-0.414560	-1.845347	4.680335	4.641489	0.000000	0.000000	0.000000	-0.000000	0.519103	-0.000000	0.000000	0.000000	0.000000
3.418750	-43.243515	608.227905	-30.711401	0.962433	0.000000	-0.414486	-1.759808	4.607077	4.422872	0.000000	0.000000	0.000000	-0.000000	0.513750	-0.000000	0.000000	0.000000	0.000000
3.419792	-42.746513	607.652954	-30.659775	0.961473	0.000000	-0.414414	-1.663245	4.525479	4.177024	0.000000	0.000000	0.000000	-0.000000	0.508759	-0.000000	0.000000	0.000000	0.000000
3.420833	-42.250965	607.130554	-30.587740	0.960506	0.000000	-0.414344	-1.558175	4.437410	3.911221	0.000000	0.000000	0.000000	-0.000000	0.504214	-0.000000	0.000000	0.000000	0.000000
3.421875	-41.758888	606.658020	-30.498329	0.959531	0.000000	-0.414275	-1.447296	4.344911	3.633121	0.000000	0.000000	0.000000	-0.000000	0.500200	-0.000000	0.000000	0.000000	0.000000
3.422917	-41.272190	606.232422	-30.394670	0.958550	0.000000	-0.414209	-1.333400	4.250137	3.350550	0.000000	0.000000	0.000000	-0.000000	0.496795	-0.000000	0.000000	0.000000	0.000000
3.423958	-40.792583	605.850403	-30.279921	0.957562	0.000000	-0.414144	-1.219307	4.155300	3.071280	0.000000	0.000000	0.000000	-0.000000	0.494074	-0.000000	0.000000	0.000000	0.000000
3.425000	-40.321583	605.508728	-30.157209	0.956567	0.000000	-0.414082	-1.107775	4.062603	2.802819	0.000000	0.000000	0.000000	-0.000000	0.492109	-0.000000	0.000000	0.000000	0.000000
3.426042	-39.860451	605.204102	-30.029575	0.955566	0.000000	-0.414022	-1.001427	3.974182	2.552208	0.000000	0.000000	0.000000	-0.000000	0.490964	-0.000000	0.000000	0.000000	0.000000
3.427083	-39.410198	604.933228	-29.899921	0.954558	0.000000	-0.413964	-0.902676	3.892045	2.325840	0.000000	0.000000	0.000000	-0.000000	0.490702	-0.000000	0.000000	0.000000	0.000000
3.428125	-38.971565	604.693054	-29.770966	0.953543	0.000000	-0.413908	-0.813665	3.818017	2.129303	0.000000	0.000000	0.000000	-0.000000	0.491379	-0.000000	0.000000	0.000000	0.000000
3.429167	-38.545040	604.480774	-29.645199	0.952522	0.000000	-0.413855	-0.736199	3.753688	1.967237	0.000000	0.000000	0.000000	-0.000000	0.493044	-0.000000	0.000000	0.000000	0.000000
3.430208	-38.130844	604.293701	-29.524853	0.951495	0.000000	-0.413804	-0.671708	3.700379	1.843235	0.000000	0.000000	0.000000	-0.000000	0.495744	-0.000000	0.000000	0.000000	0.000000
3.431250	-37.728970	604.129700	-29.411860	0.950463	0.000000	-0.413755	-0.621207	3.659100	1.759763	0.000000	0.000000	0.000000	-0.000000	0.499518	-0.000000	0.000000	0.000000	0.000000
3.432292	-37.339165	603.986877	-29.307827	0.949424	0.000000	-0.413708	-0.585274	3.630529	1.718110	0.000000	0.000000	0.000000	-0.000000	0.504401	-0.000000	0.000000	0.000000	0.000000
3.433333	-36.960968	603.863586	-29.214005	0.948379	0.000000	-0.413664	-0.564041	3.614999	1.718375	0.000000	0.000000	0.000000	-0.000000	0.510421	-0.000000	0.000000	0.000000	0.000000
3.434375	-36.593723	603.758728	-29.131268	0.947329	0.000000	-0.413622	-0.557197	3.612489	1.759479	0.000000	0.000000	0.000000	-0.000000	0.517601	-0.000000	0.000000	0.000000	0.000000
3.435417	-36.236588	603.671631	-29.060097	0.946274	0.000000	-0.413582	-0.564004	3.622631	1.839209	0.000000	0.000000	0.000000	-0.000000	0.525958	-0.000000	0.000000	0.000000	0.000000
3.436458	-35.888542	603.601746	-29.000565	0.945213	0.000000	-0.413544	-0.583324	3.644725	1.954284	0.000000	0.000000	0.000000	-0.000000	0.535503	-0.000000	0.000000	0.000000	0.000000
3.437500	-35.548428	603.549133	-28.952332	0.944147	0.000000	-0.413507	-0.613662	3.677758	2.100456	0.000000	0.000000	0.000000	-0.000000	0.546244	-0.000000	0.000000	0.000000	0.000000
3.438542	-35.214947	603.514038	-28.914646	0.943076	0.000000	-0.413473	-0.653214	3.720434	2.272621	0.000000	0.000000	0.000000	-0.000000	0.558180	-0.000000	0.000000	0.000000	0.000000
3.439583	-34.886692	603.497192	-28.886358	0.942000	0.000000	-0.413440	-0.699926	3.771213	2.464968	0.000000	0.000000	0.000000	-0.000000	0.571307	-0.000000	0.000000	0.000000	0.000000
3.440625	-34.562153	603.499451	-28.865934	0.940918	0.000000	-0.413408	-0.751565	3.828347	2.671131	0.000000	0.000000	0.000000	-0.000000	0.585616	-0.000000	0.000000	0.000000	0.000000
3.441667	-34.239777	603.521973	-28.851498	0.939832	0.000000	-0.413378	-0.805784	3.889932	2.884364	0.000000	0.000000	0.000000	-0.000000	0.601092	-0.000000	0.000000	0.000000	0.000000
3.442708	-33.917965	603.566040	-28.840858	0.938740	0.000000	-0.413349	-0.860207	3.953946	3.097733	0.000000	0.000000	0.000000	-0.000000	0.617715	-0.000000	0.000000	0.000000	0.000000
3.443750	-33.595127	603.633057	-28.831573	0.937644	0.000000	-0.413320	-0.912499	4.018307	3.304302	0.000000	0.000000	0.000000	-0.000000	0.635461	-0.000000	0.000000	0.000000	0.000000
3.444792	-33.269726	603.724548	-28.821007	0.936542	0.000000	-0.413292	-0.960445	4.080915	3.497339	0.000000	0.000000	0.000000	-0.000000	0.654304	-0.000000	0.000000	0.000000	0.000000
3.445833	-32.940323	603.841858	-28.806393	0.935435	0.000000	-0.413265	-1.002019	4.139700	3.670505	0.000000	0.000000	0.000000	-0.000000	0.674211	-0.000000	0.000000	0.000000	0.000000
3.446875	-32.605610	603.986328	-28.784916	0.934323	0.000000	-0.413237	-1.035448	4.192666	3.818043	0.000000	0.000000	0.000000	-0.000000	0.695146	-0.000000	0.000000	0.000000	0.000000
3.447917	-32.264477	604.159119	-28.753794	0.933205	0.000000	-0.413210	-1.059262	4.237935	3.934944	0.000000	0.000000	0.000000	-0.000000	0.717071	-0.000000	0.000000	0.000000	0.000000
3.448958	-31.916059	604.361145	-28.710360	0.932083	0.000000	-0.413183	-1.072336	4.273777	4.017098	0.000000	0.000000	0.000000	-0.000000	0.739943	-0.000000	0.000000	0.000000	0.000000
3.450000	-31.559755	604.593018	-28.652142	0.930955	0.000000	-0.413155	-1.073918	4.298651	4.061410	0.000000	0.000000	0.000000	-0.000000	0.763719	-0.000000	0.000000	0.000000	0.000000
3.451042	-31.195276	604.855103	-28.576948	0.929821	0.000000	-0.413126	-1.063636	4.311225	4.065885	0.000000	0.000000	0.000000	-0.000000	0.788351	-0.000000	0.000000	0.000000	0.000000
3.452083	-30.822649	605.147461	-28.482941	0.928683	0.000000	-0.413097	-1.041498	4.310409	4.029674	0.000000	0.000000	0.000000	-0.000000	0.813790	-0.000000	0.000000	0.000000	0.000000
3.453125	-30.442230	605.469666	-28.368708	0.927539	0.000000	-0.413067	-1.007874	4.295366	3.953086	0.000000	0.000000	0.000000	-0.000000	0.839987	-0.000000	0.000000	0.000000	0.000000
3.454167	-30.054684	605.821228	-28.233316	0.926390	0.000000	-0.413037	-0.963468	4.265540	3.837557	0.000000	0.000000	0.000000	-0.000000	0.866888	-0.000000	0.000000	0.000000	0.000000
3.455208	-29.660957	606.201050	-28.076359	0.925236	0.000000	-0.413005	-0.909276	4.220660	3.685581	0.000000	0.000000	0.000000	-0.000000	0.894442	-0.000000	0.000000	0.000000	0.000000
3.456250	-29.262236	606.608093	-27.897985	0.924076	0.000000	-0.412972	-0.846538	4.160754	3.500612	0.000000	0.000000	0.000000	-0.000000	0.922596	-0.000000	0.000000	0.000000	0.000000
